<svg xmlns="http://www.w3.org/2000/svg" xmlns:xlink="http://www.w3.org/1999/xlink" viewBox="0 0 892.66 893.93"><defs><style>.cls-1{fill:url(#未命名的渐变_67);}.cls-2{fill:url(#未命名的渐变_92);}.cls-3{fill:url(#未命名的渐变_128);}</style><linearGradient id="未命名的渐变_67" x1="677.34" y1="915.6" x2="539.28" y2="676.48" gradientUnits="userSpaceOnUse"><stop offset="0.06" stop-color="#1b46a7"/><stop offset="1" stop-color="#3bc7f3"/></linearGradient><linearGradient id="未命名的渐变_92" x1="326.13" y1="72.82" x2="928.94" y2="675.63" gradientUnits="userSpaceOnUse"><stop offset="0.05" stop-color="#104d90"/><stop offset="0.71" stop-color="#4caeff"/><stop offset="0.87" stop-color="#3ccbf4"/><stop offset="0.95" stop-color="#417dc8"/></linearGradient><linearGradient id="未命名的渐变_128" x1="311.7" y1="844.67" x2="311.7" y2="-20.68" gradientUnits="userSpaceOnUse"><stop offset="0.08" stop-color="#0078d4"/><stop offset="0.31" stop-color="#1788e1"/><stop offset="0.75" stop-color="#4caeff"/><stop offset="0.87" stop-color="#15b5e7"/><stop offset="0.95" stop-color="#6cd2fb"/><stop offset="1" stop-color="#5198d9"/></linearGradient></defs><title>资源 1</title><g id="图层_2" data-name="图层 2"><g id="图层_1-2" data-name="图层 1"><path class="cls-1" d="M415.37,748.93s-.3-.19-.3-.44a.52.52,0,0,1,.34-.48c.14,0,286.24-52.81,286.24-52.81a7.82,7.82,0,0,1,1.45-.13h8.19a7.88,7.88,0,0,1,7.62,5.82L754.4,831.1a7.92,7.92,0,0,1-.63,5.75L736.13,872.2l-6.73,11.36L729,884c-11.73,15.51-46.35,9-55.39,5.61"/><path class="cls-2" d="M735.76,872.79,887.07,583.6a49.21,49.21,0,0,0,1.59-42.24L668.8,30.12A49.34,49.34,0,0,0,623.58.21l-221,.12s324.1,750.48,333.56,779.51C750.91,825.15,735.76,872.79,735.76,872.79Z"/><path class="cls-3" d="M224.89,838.67l-200.26-.11A24.61,24.61,0,0,1,2,804.31l328.31-771C338.07,15.06,356-.07,375.83,0L623.36,0c-3.48,0-23.26,5-34.9,23.35-17.73,28-295.25,691.13-340.86,800.21A24.6,24.6,0,0,1,224.89,838.67Z"/></g></g></svg>